name ./resultDataOpenSim/trcMotMarkerGrf/sub06/grf-01-04.mot
datacolumns 19
datarows 20
range 0.51200000 0.58800000
endheader

                time	     ground_force_vx	     ground_force_vy	     ground_force_vz	     ground_force_px	     ground_force_py	     ground_force_pz	   l_ground_force_vx	   l_ground_force_vy	   l_ground_force_vz	   l_ground_force_px	   l_ground_force_py	   l_ground_force_pz	     ground_torque_x	     ground_torque_y	     ground_torque_z	   l_ground_torque_x	   l_ground_torque_y	   l_ground_torque_z	
          0.51200000	        132.89517995	        721.37391372	        -37.00411049	         -0.84787048	          0.00000000	          0.10917666	          0.00000000	          0.00000000	          0.00000000	          0.00000000	          0.00000000	          0.00000000	          0.00000000	         -0.24645053	          0.00000000	          0.00000000	          0.00000000	          0.00000000	
          0.51600000	        138.99919866	        729.82475187	        -36.73262738	         -0.84738375	          0.00000000	          0.10889518	          0.00000000	          0.00000000	          0.00000000	          0.00000000	          0.00000000	          0.00000000	          0.00000000	         -0.17926580	          0.00000000	          0.00000000	          0.00000000	          0.00000000	
          0.52000000	        144.99807794	        737.65298628	        -36.08459987	         -0.84690318	          0.00000000	          0.10859409	          0.00000000	          0.00000000	          0.00000000	          0.00000000	          0.00000000	          0.00000000	          0.00000000	         -0.08289963	          0.00000000	          0.00000000	          0.00000000	          0.00000000	
          0.52400000	        150.86284543	        744.83025785	        -35.21143156	         -0.84642075	          0.00000000	          0.10827782	          0.00000000	          0.00000000	          0.00000000	          0.00000000	          0.00000000	          0.00000000	          0.00000000	          0.03489259	          0.00000000	          0.00000000	          0.00000000	          0.00000000	
          0.52800000	        156.60290851	        751.34330636	        -34.29791464	         -0.84592897	          0.00000000	          0.10795171	          0.00000000	          0.00000000	          0.00000000	          0.00000000	          0.00000000	          0.00000000	          0.00000000	          0.16252122	          0.00000000	          0.00000000	          0.00000000	          0.00000000	
          0.53200000	        162.25426597	        757.17814025	        -33.51928216	         -0.84541731	          0.00000000	          0.10762060	          0.00000000	          0.00000000	          0.00000000	          0.00000000	          0.00000000	          0.00000000	          0.00000000	          0.28690478	          0.00000000	          0.00000000	          0.00000000	          0.00000000	
          0.53600000	        167.86583107	        762.30073157	        -33.00180811	         -0.84487834	          0.00000000	          0.10728863	          0.00000000	          0.00000000	          0.00000000	          0.00000000	          0.00000000	          0.00000000	          0.00000000	          0.39614433	          0.00000000	          0.00000000	          0.00000000	          0.00000000	
          0.54000000	        173.48725042	        766.64525718	        -32.79614434	         -0.84431132	          0.00000000	          0.10696023	          0.00000000	          0.00000000	          0.00000000	          0.00000000	          0.00000000	          0.00000000	          0.00000000	          0.48187241	          0.00000000	          0.00000000	          0.00000000	          0.00000000	
          0.54400000	        179.15813040	        770.12713599	        -32.87011512	         -0.84371858	          0.00000000	          0.10663958	          0.00000000	          0.00000000	          0.00000000	          0.00000000	          0.00000000	          0.00000000	          0.00000000	          0.54066637	          0.00000000	          0.00000000	          0.00000000	          0.00000000	
          0.54800000	        184.90036907	        772.68226071	        -33.12115093	         -0.84310640	          0.00000000	          0.10632644	          0.00000000	          0.00000000	          0.00000000	          0.00000000	          0.00000000	          0.00000000	          0.00000000	          0.57417217	          0.00000000	          0.00000000	          0.00000000	          0.00000000	
          0.55200000	        190.71538502	        774.29568973	        -33.40168568	         -0.84248278	          0.00000000	          0.10601361	          0.00000000	          0.00000000	          0.00000000	          0.00000000	          0.00000000	          0.00000000	          0.00000000	          0.58796826	          0.00000000	          0.00000000	          0.00000000	          0.00000000	
          0.55600000	        196.58635484	        774.99109127	        -33.55002356	         -0.84185128	          0.00000000	          0.10569033	          0.00000000	          0.00000000	          0.00000000	          0.00000000	          0.00000000	          0.00000000	          0.00000000	          0.58956042	          0.00000000	          0.00000000	          0.00000000	          0.00000000	
          0.56000000	        202.48403713	        774.79902547	        -33.42111466	         -0.84121082	          0.00000000	          0.10534685	          0.00000000	          0.00000000	          0.00000000	          0.00000000	          0.00000000	          0.00000000	          0.00000000	          0.58610700	          0.00000000	          0.00000000	          0.00000000	          0.00000000	
          0.56400000	        208.37204074	        773.73590728	        -32.91502025	         -0.84056052	          0.00000000	          0.10497899	          0.00000000	          0.00000000	          0.00000000	          0.00000000	          0.00000000	          0.00000000	          0.00000000	          0.58247794	          0.00000000	          0.00000000	          0.00000000	          0.00000000	
          0.56800000	        214.20811995	        771.80291932	        -32.00124120	         -0.83990243	          0.00000000	          0.10458940	          0.00000000	          0.00000000	          0.00000000	          0.00000000	          0.00000000	          0.00000000	          0.00000000	          0.58008261	          0.00000000	          0.00000000	          0.00000000	          0.00000000	
          0.57200000	        219.94160287	        768.99309904	        -30.72975189	         -0.83923958	          0.00000000	          0.10418240	          0.00000000	          0.00000000	          0.00000000	          0.00000000	          0.00000000	          0.00000000	          0.00000000	          0.57664837	          0.00000000	          0.00000000	          0.00000000	          0.00000000	
          0.57600000	        225.50873702	        765.29492328	        -29.21838307	         -0.83857474	          0.00000000	          0.10376154	          0.00000000	          0.00000000	          0.00000000	          0.00000000	          0.00000000	          0.00000000	          0.00000000	          0.56689015	          0.00000000	          0.00000000	          0.00000000	          0.00000000	
          0.58000000	        230.82873063	        760.69151638	        -27.61982316	         -0.83791741	          0.00000000	          0.10332725	          0.00000000	          0.00000000	          0.00000000	          0.00000000	          0.00000000	          0.00000000	          0.00000000	          0.54383829	          0.00000000	          0.00000000	          0.00000000	          0.00000000	
          0.58400000	        235.80252207	        755.15668096	        -26.08242172	         -0.83727796	          0.00000000	          0.10287985	          0.00000000	          0.00000000	          0.00000000	          0.00000000	          0.00000000	          0.00000000	          0.00000000	          0.50049826	          0.00000000	          0.00000000	          0.00000000	          0.00000000	
          0.58800000	        240.31605286	        748.64882006	        -24.71570788	         -0.83665925	          0.00000000	          0.10242169	          0.00000000	          0.00000000	          0.00000000	          0.00000000	          0.00000000	          0.00000000	          0.00000000	          0.43149419	          0.00000000	          0.00000000	          0.00000000	          0.00000000	
